<?xml version="1.0" encoding="utf-8"?>
<!-- Generator: Adobe Illustrator 16.0.0, SVG Export Plug-In . SVG Version: 6.00 Build 0)  -->
<!DOCTYPE svg PUBLIC "-//W3C//DTD SVG 1.1//EN" "http://www.w3.org/Graphics/SVG/1.1/DTD/svg11.dtd">
<svg version="1.1" id="Layer_1" xmlns="http://www.w3.org/2000/svg" xmlns:xlink="http://www.w3.org/1999/xlink" x="0px" y="0px"
	 width="128px" height="128px" viewBox="0 0 128 128" enable-background="new 0 0 128 128" xml:space="preserve">
<g>
	
		<radialGradient id="SVGID_1_" cx="176.2021" cy="42.4766" r="0.1042" gradientTransform="matrix(-0.0138 0 0 0.2813 67.5048 1.3838)" gradientUnits="userSpaceOnUse">
		<stop  offset="0" style="stop-color:#1C75BC"/>
		<stop  offset="1" style="stop-color:#02606D"/>
		<stop  offset="1" style="stop-color:#00AEEF"/>
	</radialGradient>
	<polygon fill="url(#SVGID_1_)" stroke="#333333" stroke-miterlimit="10" points="65.068,13.34 65.064,13.342 65.064,13.319 	"/>
	<radialGradient id="SVGID_2_" cx="63.0005" cy="63.0005" r="49.6836" gradientUnits="userSpaceOnUse">
		<stop  offset="0" style="stop-color:#1C75BC"/>
		<stop  offset="1" style="stop-color:#02606D"/>
		<stop  offset="1" style="stop-color:#00AEEF"/>
	</radialGradient>
	<path fill="url(#SVGID_2_)" stroke="#333333" stroke-miterlimit="10" d="M110.64,62.998h-5.406l-2.102-2.027
		c-0.15-3.38-0.75-6.684-1.727-9.762l1.277-2.627l5.027-1.877l1.203-2.628c-2.328-5.481-5.482-10.512-9.461-14.792h-2.852
		l-3.83,3.83h-2.928c-2.402-2.253-5.182-4.13-8.109-5.708l-0.975-2.778l2.25-4.88l-1.049-2.702
		c-5.289-2.16-11.021-3.506-16.976-3.748l-1.947,1.945v5.406l-2.027,2.103c-3.379,0.149-6.606,0.75-9.761,1.726l-2.627-1.275
		l-1.877-5.031l-2.628-1.202c-5.48,2.328-10.511,5.481-14.791,9.46v2.853l3.83,3.83v2.928c-2.252,2.401-4.129,5.18-5.706,8.108
		l-2.778,0.976l-4.88-2.252l-2.704,0.977c-2.176,5.33-3.529,11.111-3.753,17.119l2.027,2.027h5.405l2.103,2.025
		c0.149,3.379,0.75,6.684,1.726,9.76l-1.276,2.631l-5.03,1.877l-1.202,2.627c2.252,5.48,5.406,10.51,9.385,14.791h2.853l3.83-3.83
		l2.929-0.074c2.402,2.252,5.18,4.129,8.108,5.707l0.976,2.775l-2.252,4.881l0.976,2.705c5.331,2.25,11.111,3.604,17.118,3.828
		l2.027-2.025v-5.408l2.027-2.102c3.378-0.15,6.608-0.75,9.761-1.727l2.627,1.277l1.877,5.027l2.631,1.203
		c5.48-2.252,10.51-5.406,14.789-9.385v-2.854l-3.828-3.83l-0.076-2.928c2.254-2.402,4.131-5.182,5.707-8.109l2.777-0.977
		l4.881,2.254l2.703-0.975c2.176-5.332,3.529-11.113,3.754-17.121L110.64,62.998z M62.812,91.453
		c-15.691,0-28.456-12.764-28.456-28.455c0-15.693,12.764-28.458,28.456-28.458c15.693,0,28.457,12.764,28.457,28.458
		C91.269,78.689,78.505,91.453,62.812,91.453z"/>
</g>
</svg>
