<?xml version="1.0" encoding="utf-8"?>
<!-- Generator: Adobe Illustrator 16.0.0, SVG Export Plug-In . SVG Version: 6.00 Build 0)  -->
<!DOCTYPE svg PUBLIC "-//W3C//DTD SVG 1.1//EN" "http://www.w3.org/Graphics/SVG/1.1/DTD/svg11.dtd">
<svg version="1.1" id="Layer_1" xmlns="http://www.w3.org/2000/svg" xmlns:xlink="http://www.w3.org/1999/xlink" x="0px" y="0px"
	 width="128px" height="128px" viewBox="0 0 128 128" enable-background="new 0 0 128 128" xml:space="preserve">
<g id="layer1" transform="translate(149.91545,66.882448)">
	<path id="path5442" fill="#333333" d="M-96.987,38.918c-6.104-0.874-12.98-4.364-20.202-10.252
		c-3.035-2.476-10.119-9.701-13.132-13.396c-4.793-5.881-9.977-13.331-13.926-20.021c-1.982-3.362-5.612-9.86-5.54-9.919
		c0.025-0.02,1.016-0.103,2.202-0.182c18.482-1.249,35.84-9.75,53.42-26.166c1.216-1.136,2.189-1.888,2.294-1.774
		c0.644,0.699,5.49,13.155,7.675,19.729c5.079,15.276,7.232,27.046,6.935,37.891c-0.141,5.145-0.614,8.203-1.844,11.903
		c-1.152,3.467-2.363,5.539-4.562,7.801c-2.904,2.99-5.744,4.26-10.024,4.481C-94.757,39.066-96.242,39.026-96.987,38.918z
		 M-106.611,27.361c0.974-1.701,3.508-4.551,5.294-5.951c2.707-2.125,6.655-3.803,10.841-4.604c1.047-0.2,3.517-0.481,5.488-0.626
		l3.586-0.263l-2.372-1.021c-4.779-2.059-8.057-2.853-11.75-2.85c-3.867,0.005-6.423,0.917-8.5,3.035
		c-2.338,2.388-3.33,5.342-3.514,10.474c-0.064,1.784-0.068,3.245-0.008,3.245C-107.485,28.8-107.065,28.152-106.611,27.361
		L-106.611,27.361z M-121.931,4.737c2.784-1.342,4.482-4.806,5.022-10.25l0.185-1.861l-1.094,1.311
		c-3.443,4.128-7.421,7.791-10.207,9.394c-0.684,0.394-1.078,0.748-0.964,0.865c0.41,0.417,3.029,1.029,4.471,1.043
		C-123.361,5.251-122.759,5.134-121.931,4.737z M-96.399-7.755c1-0.381,2.197-1.358,2.845-2.318c0.61-0.905,1.799-3.777,1.633-3.946
		c-0.044-0.045-0.786,0.17-1.649,0.478c-3.487,1.242-6.922,1.824-12.085,2.046l-3.342,0.143l1.915,1.079
		C-102.39-7.629-98.887-6.805-96.399-7.755L-96.399-7.755z M-64.066,38.585c-4.647-1.151-8.84-4.799-12.259-10.667
		c-1.055-1.811-1.238-2.504-0.896-3.393c0.132-0.343,0.349-0.071,1.166,1.456c2.138,4.005,5.009,7.469,7.724,9.322
		c6.401,4.367,13.617,2.775,20.708-4.564C-39.37,22.193-32.09,6.08-26.87-15.199c1.321-5.386,3.666-16.915,3.479-17.105
		c-0.064-0.065-1.113,0.093-2.332,0.352c-3.26,0.691-8.44,1.509-12.241,1.936c-4.646,0.521-14.483,0.521-18.647,0
		c-9.178-1.148-17.78-3.956-24.566-8.018c-0.824-0.493-1.563-0.858-1.639-0.81c-0.076,0.049-0.305,2.244-0.507,4.88
		c-0.202,2.636-0.437,5.486-0.522,6.333L-84-26.092l-0.467-1.382c-0.436-1.284-0.454-1.57-0.261-4.069
		c0.558-7.221,0.78-8.947,1.172-9.101c0.155-0.061,1.171,0.437,2.26,1.107c6.415,3.947,14.149,6.717,22.137,7.931
		c4.041,0.615,6.672,0.791,11.711,0.791c7.318-0.002,14.704-0.823,22.046-2.453c1.631-0.361,3.062-0.597,3.18-0.523
		c0.371,0.235,0.242,1.171-1.071,7.812C-28.468,0.153-36.25,19.715-45.749,30.465C-51.605,37.093-58.231,40.032-64.066,38.585
		L-64.066,38.585z M-64.542,21.3c-3.822-0.572-7.083-3.857-9.087-9.159c-0.421-1.114-0.767-2.077-0.767-2.144
		c0-0.064,0.599,0.333,1.333,0.884c4.109,3.088,8.774,4.505,13.873,4.212c2.729-0.157,6.871-1.01,9.794-2.018l2.256-0.779
		l-0.964,1.01c-1.27,1.335-3.877,3.541-5.489,4.646C-57.392,20.559-61.368,21.774-64.542,21.3L-64.542,21.3z M-40.765-6.776
		c-2.811-1.954-6.553-3.631-10.672-4.777c-1.186-0.331-2.302-0.655-2.479-0.72c-0.399-0.146,1.385-0.804,3.881-1.433
		c2.381-0.601,5.764-0.649,6.994-0.101c1.345,0.6,2.24,1.409,2.797,2.531c0.614,1.239,1.046,3.316,0.949,4.57l-0.07,0.905
		L-40.765-6.776L-40.765-6.776z M-78.492-10.667c0-0.696,0.888-3.172,1.479-4.121c2.213-3.56,6.463-3.527,12.642,0.098l1.94,1.139
		l-3.518,0.263c-5.029,0.379-8.529,1.146-11.734,2.574C-78.356-10.417-78.492-10.407-78.492-10.667z"/>
</g>
</svg>
