<?xml version="1.0" encoding="utf-8"?>
<!-- Generator: Adobe Illustrator 16.0.0, SVG Export Plug-In . SVG Version: 6.00 Build 0)  -->
<!DOCTYPE svg PUBLIC "-//W3C//DTD SVG 1.1//EN" "http://www.w3.org/Graphics/SVG/1.1/DTD/svg11.dtd">
<svg version="1.1" id="Layer_1" xmlns="http://www.w3.org/2000/svg" xmlns:xlink="http://www.w3.org/1999/xlink" x="0px" y="0px"
	 width="128px" height="128px" viewBox="0 0 128 128" enable-background="new 0 0 128 128" xml:space="preserve">
<g>
	<g>
		<linearGradient id="SVGID_1_" gradientUnits="userSpaceOnUse" x1="63.9575" y1="54.1455" x2="84.4359" y2="105.5533">
			<stop  offset="0" style="stop-color:#D33F27"/>
			<stop  offset="1" style="stop-color:#000000"/>
		</linearGradient>
		<path fill="url(#SVGID_1_)" d="M98.009,38.104c-0.29,0.388-0.679,0.775-0.969,0.97c-0.291,0-0.582,0.097-0.582,0.484v0.291h-0.484
			c-0.098,0.194-0.582,0.291-0.582,0.582v0.291l0.679-0.194l1.26,0.097c-0.097,0.873-1.163,0.969-1.163,1.648v0.097
			c-0.582,0.291-1.163,0.969-1.551,1.551c-1.066-0.194-0.873,0.484-0.873,1.26l-0.291,0.485c-0.097,1.357-1.163,0.388-1.357,1.648
			c-1.066,0-2.326,1.164-3.296,1.551c-0.098,0.679-0.775,1.164-1.357,1.455c0,1.066-1.939,0.679-1.939,1.26
			c0,0.582,0.485,0.388,0.388,0.873c-0.388,0.291-0.97,0.291-1.454,0.291l-0.872,0.291c0-0.582-0.582,0-0.776,0.194l-0.097-0.776
			c-0.775,0.194-1.551,0.485-2.327,0.776l-0.581,1.163c-0.776,0.291-1.745,1.357-2.23,2.036l0.873-0.194l0.872-0.582
			c0-0.097,0-0.194,0.097-0.194c0.194,0,0.389,0.291,0.389,0.388c0,0.194-0.194,0.291-0.389,0.291l-0.484,0.582
			c0,0.291,0.097,1.26-0.291,1.26c-0.291,0-0.679,0-0.872,0.291c-0.485,0-0.97,0.388-1.552,0.485l-0.097,0.969l-0.679,0.582
			l-0.97,0.291c0.097,0.388-0.291,0.582-0.679,0.582h-0.097l-0.485,0.775c-0.872,0-2.521-0.194-2.521,1.066l-0.484,0.679
			l0.097,1.261l-0.97,0.388c-0.193,0.388-0.388,0.679-0.679,0.97c0.679,0.193-0.193,2.229,1.164,2.229h0.097
			c-0.097,0.485,0.097,2.036,0.775,2.133c0,0.389-0.388,0.97,0.291,1.067c0,0.484,0.484,0.484,0.484,0.969
			c-0.193,0.194-0.484,0.485-0.484,0.776c0,0.097,0.097,0.193,0.194,0.193c0.29,0,0.388,0.097,0.388,0.388v0.194l0.581,0.582
			c0,0.29,0.098,0.581,0.388,0.679c0,0.388,0.291,0.388,0.582,0.388c1.454,0,0.97,0.679,0.97,2.133l0.775,1.163
			c0.291,0.097,0.388,0.485,0.388,0.775c0.291,0.194,0.291,0.582,0.291,0.873c0,0.194,0,0.484-0.193,0.484h-0.485
			c0,0.098,0,0.873,0.098,0.873c0.388,0,0.484-0.484,1.066-0.097l0.388,0.872l0.388,0.388v0.97l0.388,0.582
			c0,0.291-0.194,0.872,0.194,0.872h0.29l0.582,1.843l0.291,0.097c0,0.388-0.388,0.873,0.193,0.97l0.098,0.388
			c1.066,0.097,1.163,0.582,1.163,1.551c0.097,0,0.291,0,0.291,0.194c0,0.291-0.194,0.484-0.388,0.679
			c0.193,0.097,0.291,0.484,0.388,0.679c0,0.291,0.291,0.388,0.582,0.388c1.357,0,0.97,0.291,0.97,1.939
			c0.29,0.291,0.581,0.679,0.678,1.066c0.291,0.097,0.389,0.388,0.389,0.679c0.29,0.097,0.388,0.484,0.388,0.775
			c0,0.194,0,0.484-0.194,0.484h-0.484c0,0.098,0,0.873,0.193,0.873c0.291,0,0.388-0.485,0.97-0.194l0.291,0.873l0.388,0.388
			l0.097,0.873l0.388,0.484c0,0.194-0.193,0.872,0.194,0.872l0.194-0.097c0.29,1.066,0.679,2.036,1.163,3.006
			c0.97,0.097,1.163,0.582,1.163,1.454c0.194,0,0.291,0,0.291,0.194c0,0.388-0.581,0.872-0.872,0.872s-0.388-0.193-0.388-0.388
			l-0.582-0.775c-0.194,0-0.388,0.097-0.388,0.388c0,0.097,0.193,0.291,0.291,0.388c0.193,0.485,0.679,0.194,0.872,0.679
			c0.388,0.097,0.388,0.484,0.388,0.775v0.291c0.291,0.388,0.873,0.775,1.357,0.97c0.097,0.291,0.291,0.679,0.582,0.775l-0.388,0.97
			h0.097c0.484,0.097-0.194,0.194-0.291,0.194c-0.193,0-0.581,0-0.581-0.194v-0.097l-0.97-1.648c-0.291,0-0.679-0.873-1.455-1.066
			l-0.872-0.291l-0.388-0.582c-0.582-0.29-1.261-0.872-1.552-1.454c0-0.679-1.163-0.484-1.163-1.357l-0.97-1.26
			c0.097-0.291-0.097-0.582-0.388-0.679c-0.388-0.679-0.873-1.357-1.357-2.036l-0.97-0.194c0.388,0.485,0.775,1.163,0.873,1.745
			c-0.388,0-0.098,0.485,0,0.582c0,0.775,0.291,1.551,0.388,2.327l0.388,0.679c0,1.066,0.291,2.229,0.291,3.393l0.775,0.389
			c-0.775,1.066,0.582,0.29,0.582,1.454l-0.097,0.581c0.484,0,0.388,0.679,0.29,0.97l0.389,0.776c-0.873,0,0.872,1.938,0.872,2.521
			c0.291-0.097,0.388,0.291,0.388,0.484c0.291,0.388,1.066,1.164,1.066,1.745c0,0.194-0.193,0.291-0.388,0.291l-0.582-0.388
			c0-0.582-1.938-1.552-1.938-1.745c0-0.775-0.679-1.066-1.164-1.552l0.098-0.872l-0.388-0.097l-0.389-0.388l-0.097-0.97
			l-0.97-0.388l-1.551-2.909c0-0.388-0.097-0.775-0.388-1.066c-0.388,0-0.388,0.679-0.388,0.873l0.29,0.484
			c0,0.679-0.097,0.775,0.485,1.163c0,0.388,0.097,1.164,0.679,1.164h0.097l0.388,2.036l0.388,0.581l0.679,0.388
			c0.098,0.485,0.291,1.745,0.873,1.843l-0.291,0.679c-0.194,0-0.484-0.098-0.484,0.193c0,1.164,0.775,1.648,0.775,2.521v0.097
			c0.775,1.163,1.745,2.715,2.133,4.072l0.873,0.388c0,0.291,0.193,0.582,0.484,0.679c0,0.679,0.582,0.775,0.582,1.454
			c0.775,0,1.066,0.873,1.163,1.454c0.388,0,0.484,0.291,0.484,0.679c0,0.097,0,0.388-0.193,0.388c-0.485,0-1.648-1.551-1.842-2.036
			c-1.648-1.26-4.654-5.332-6.205-5.816l-0.485-0.873l-0.679-0.582c0-0.193,0-0.581-0.291-0.581l-0.775-1.357
			c0-0.291-0.193-0.582-0.484-0.582h-0.194l-0.484-0.679c-0.388,0-0.388-0.388-0.388-0.679v-0.291l-1.067-0.581
			c0-0.679-0.29-1.357-0.581-1.939c-0.679,0.097-0.97-0.775-0.97-1.261l-0.679-1.26c-0.484,0-0.679-1.066-0.775-1.455
			c-0.582,0-0.775,0-0.775-0.581l-0.389-0.582c-0.097-0.775-0.679-1.066-0.679-1.842l-0.484-0.873l-0.388-0.193l0.097-0.97
			c-0.873,0-0.582-0.679-1.163-1.066c-0.485-0.679-0.776-1.455-1.164-2.23c-0.194,0.098-0.388-0.291-0.388-0.484l-0.776-0.388
			c0-0.679-0.291-1.455-0.582-2.036c-0.679,0-0.97-0.97-0.97-1.552l-0.775-1.357c-0.485,0-0.679-1.163-0.679-1.551
			c-1.648,0-0.388-1.066-1.261-1.261c0-0.97-0.679-1.066-0.679-1.842v-0.194l-0.484-0.97l-0.388-0.193l0.097-1.066
			c-1.066,0-0.582-0.775-1.164-1.164c-0.485-0.775-0.873-1.26-0.873-2.133l-0.679-0.484V82.8l-0.775-0.485v-0.97l-0.485-0.29
			l-0.776,0.193l-0.484,0.873c-0.582,0-1.357,0.775-1.746,1.26l-0.388-0.097c0-0.775-0.097-1.261,0.776-1.454
			c0.097,0,0.775-0.291,0.775-0.388c0-0.098-0.388-0.098-0.485-0.098c-0.194,0.291-0.679,0.389-1.066,0.389
			c0,0.097,0,0.193-0.097,0.193c-0.485,0-1.164-0.679-1.551-0.97c-0.097,0-0.291,0-0.291-0.193c0-0.388,1.164-1.164,1.454-1.357
			c0-0.194-0.097-0.388-0.388-0.388c-1.066,0-3.103,1.551-3.878,2.036l0.291,1.066c0.097,0,0.485-0.098,0.485,0.097
			c0,0.291-0.291,0.582-0.485,0.679c-0.775,0-1.454,0.484-1.454,1.261l-0.776,2.035c0.291,0.194,1.455,0.291,1.455,0.485
			c0,0.193-0.194,0.291-0.291,0.388l-0.873,0.097v0.776c0.097,0.193,0.679,1.066,0.097,1.066h-0.097l-0.775,1.551
			c-0.582,0.388-1.067,0.97-1.455,1.552l-1.648,0.775c0,0.97-1.067,0.97-1.164,1.745c-0.97-0.484-0.873,0.291-1.066,1.066
			l-1.551,1.163c-0.291,0-0.679-0.193-0.776-0.581c0-0.291,0.291-0.485,0.582-0.485h0.097c0.097-0.097,2.618-2.521,2.618-3.103
			c0-0.193-0.194-0.291-0.388-0.291l-0.291,1.067c-0.485,0.29-2.036,0.969-2.036,1.647c-0.485,0.485-1.455,1.745-2.133,1.745
			l0.485,0.389c0.388,0,0.582,0.097,0.582,0.484v0.484l-1.745,1.261c-0.582-0.097-0.582,0-0.679-0.582
			c0-0.097-0.097-0.291-0.194-0.291c-0.194,0-0.388,0.194-0.485,0.389l0.388,0.775l-0.485,0.388l-1.261,0.097v0.582l-0.388,0.194
			c0,0.193-0.097,0.388-0.388,0.388l-0.291-0.098c-0.194,0.098-0.388,0.388-0.388,0.679c0,1.066-0.776,0.776-1.551,1.261
			l-0.388,0.388l0.388,0.291v0.582c-0.485,0-0.97,0.097-1.357,0.097c-0.291,0-0.679-0.097-0.679-0.388l0.776-0.388l-0.388-0.582
			c0-0.194,0-0.582-0.291-0.679l-0.097-1.261c0.291,0.098,0.776,0,0.776-0.388l0.388-0.872l-0.291-1.066l-0.873-0.582
			c0-0.194-0.097-0.388-0.291-0.388c-0.291,0-0.484,0-0.484-0.388l-0.776-0.098v0.776c-0.775,0-1.842-0.194-1.842,0.872v0.291
			c-1.357,0.582-2.133,1.454-3.296,2.229c0-1.066,0.776-2.229,0.873-3.393c0.388,0.097,0.776-0.194,0.776-0.582
			c0.775,0.291,1.26-0.873,1.26-1.552l1.455-1.551c0-0.097-0.194-0.873-0.291-0.873c-0.582,0-0.388,1.164-0.873,1.552
			c0.097,0.97-0.97,1.066-1.648,1.066c-0.582,0.97-1.551,1.648-2.327,2.327c-0.388,0-1.164-0.291-1.164,0.291l-1.454,1.454
			c-0.388-0.097-0.776,0-0.776,0.484l-0.775,0.679l-0.873,0.291c0,0.194,0.097,0.582-0.194,0.582l-0.582-0.098l-0.485,0.389
			c-0.679,0-0.679,0.193-0.679,0.775c0,0.581-1.648,0.097-1.648,0.872c0,0.291-0.097,0.582-0.291,0.776l-0.582,0.872
			c0.097,0.388-0.194,0.775-0.679,0.775c-0.776,0-0.97-0.484-1.357-0.969c0-0.485,0.194-0.873,0.679-0.873
			c0-0.775,1.551-2.908,1.551-3.587c0-0.291,0.097-0.485,0.485-0.485h0.194c0-0.388,0.388-0.872,0.679-1.066
			c0.679-0.097-0.194-0.775,0.582-0.872c0-0.098,0-0.389-0.194-0.389c-0.291,0-0.485,0.485-0.485,0.679v0.194
			c-0.582-0.097-1.551,0.194-1.648,0.873l-0.776,0.581c-0.485,0-0.679-0.484-0.679-0.97c0-0.969,1.066-0.097,1.164-1.647
			l1.164-1.552c-0.097-0.775,0.679-0.679,0.679-1.357c0-0.291,0.194-0.775,0.484-0.97c0-0.29,0.097-0.679,0.388-0.775
			c0.291-0.582,0.485-1.261,1.26-1.261l1.164-1.745c0-0.29,0.097-0.581,0.388-0.679c-0.097-0.388,0.388-0.388,0.582-0.388h0.485
			c0.291-0.388,0.485-1.647,0.776-1.647l0.484,0.097c0-0.97,1.164-1.164,1.164-1.843l0.388-0.872l0.775-0.679
			c0.485,0,0.485-0.388,0.97-0.484l0.484-0.389l-0.291-0.679c0.097-0.097,0.194-0.193,0.291-0.193c0.485,0,0.388,0,0.485-0.582
			c0.582,0,1.551,0.194,1.551-0.679l1.164-1.551l2.036-0.679c0-3.199,1.357-1.357,1.357-2.424v-0.194l0.775-0.679
			c1.648,0,1.745-1.066,2.23-2.327l1.066-0.29c0.291-0.582,0.97-1.066,1.551-1.261c0-0.291,0-0.582,0.388-0.582h0.484
			c-0.097-0.679,0-0.775,0.679-0.775l0.388-0.679l0.484-0.388l0.097-0.873l0.775-0.388c0.194,0,0.679,0.098,0.679-0.193
			l-0.097-0.776c0.194,0,0.775-0.097,0.775-0.388c0.388,0,0.485-0.388,0.485-0.775v-0.097c0.582-0.485,1.164-0.775,1.164-1.648
			v-0.194l0.775-0.194c0.582-0.388,1.261-0.873,1.648-1.455c0-0.291,0.097-0.582,0.388-0.582l0.485,0.097
			c0.582-0.388,1.648-1.164,1.842-1.842c0-0.388,0.291-0.485,0.582-0.485h0.194l0.582-0.582l0.097-1.066
			c-0.194-0.582-0.582-1.067-0.97-1.552c0-0.388-0.097-0.873-0.484-1.066l0.097-1.454c-0.775-2.036-1.551-4.169-1.551-6.399
			c0-1.066-0.873-0.776-0.873-1.745c-0.097-0.097-0.388-0.194-0.388-0.388c0-0.097,0.097-0.097,0.194-0.097H41
			c-0.097-0.097-0.775-2.618-0.775-3.006c0-0.194,0-1.551,0.291-1.551c0.097,0,0.291,0.291,0.388,0.388c0.097,0,0.194,0,0.194-0.097
			c0-0.194-0.194-0.485-0.388-0.679c1.067-1.26-0.097-0.582-0.097-1.26c0-0.388,0.485-1.551-0.194-1.648
			c-0.194-1.066-1.26-3.587-1.26-4.363v-2.715c0.291-0.194,0.388-0.679,0.388-0.969l-0.291-0.776c0-0.485,0.291-0.775,0.291-1.164
			l-0.291-0.679c0.194,0,0.388-0.097,0.388-0.291c0-0.291-0.097-0.582,0.291-0.582c0-0.291,0-0.582,0.388-0.582h0.485
			c0-0.291,0.194-0.679,0.485-0.776c0.485,0,0.97,0.388,1.454,0.388c0.097-0.291,0.291-0.582,0.582-0.582l0.291,0.097
			c-0.291,0.291,0,0.485,0.291,0.485l0.388-0.485c-0.097-0.97,3.2-1.26,3.878-1.26c0,0.679,0.485,1.066,0.485,1.745l0.291,0.679
			c0,0.097,0,0.388,0.194,0.388c0.194,0,0.388-0.194,0.582-0.291l-0.097-2.909c0-0.291,0-2.327,0.388-2.327
			c0.194,0.775,0.582,1.648,0.582,2.424l0.775,0.873v1.066l0.291,0.679l0.291,0.194l0.097,0.873
			c0.291,0.388,0.776,1.357,1.357,1.357c0.194,0,0.194-0.194,0.194-0.291c-0.388-0.194-0.485-1.163-0.291-1.163
			c0.097,0,0.291,0.485,0.291,0.582c3.781,0,3.975,1.648,3.975,5.235l0.582,0.776c0.097,0.775,0.485,1.551,0.485,2.327v0.194
			l0.484,0.969c0,0.097,0,0.97,0.291,0.97c-0.097,1.164,0.679,2.424,0.679,3.199v1.164l0.388,0.291
			c0.097,0.388,0.291,0.873,0.582,1.164c-0.097,0.388,0,0.775,0.291,1.066c0,0.194,0,0.679,0.291,0.679l0.485-0.097l0.775-0.873
			c0.291-0.097,0.485-0.582,0.485-0.873c0-0.097,0-0.291,0.097-0.291c0.291,0,0.485,0.291,0.679,0.485
			c0.484,0,0.969-0.291,1.066-0.775l0.775-0.291c0.194,0,0.389,0,0.389-0.291c0-0.291,0-0.485,0.388-0.485
			c0-0.388,0.193-0.775,0.484-0.969c0.388,0.097,0.776,0,0.776-0.485h0.969l0.291-0.388c0.582,0,1.164-0.97,1.454-1.455
			c0.098,0.194,0.389,0.485,0.582,0.485c0.194,0,0.194-0.194,0.194-0.291v-0.194l0.291-0.194c0.097-0.388,0-1.066,0.484-1.066
			l0.484,0.097l0.679-0.679c0.776-0.097,1.164-1.164,1.939-1.164c0.582-0.388,1.745-1.164,2.424-1.164
			c0.582-0.679,1.551-1.164,2.327-1.551l0.581-0.97c0.679,0.097,0.776-0.291,1.261-0.291h0.194c0-0.388-0.194-0.776,0.388-0.776
			c-0.291-0.388,0.388-0.388,0.388-0.969c0,0,0-0.194,0.097-0.194c0.194,0,0.388,0.291,0.485,0.388h0.097
			c0-0.388,0.193-1.164,0.679-1.164c0.97,0,0.97-0.485,1.551-1.164h0.291l0.485-0.388h0.193c0.097-0.194-0.193-0.679,0.291-0.679
			c0.194,0,0.873,0.388,0.873-0.097l0.872-0.582v-0.097h0.194l0.484-0.679h0.194l1.26-0.776c0.582-0.097,0.97-0.969,1.552-0.969
			c0.581-0.388,1.26-0.873,1.938-0.97c0.485-0.582,1.261-0.873,1.939-1.164l0.388-0.873c0.484,0.097,0.679-0.194,1.066-0.194h0.194
			l0.291-0.582l0.581-0.388c0.098-0.388,0.291-1.163,0.776-1.163c0.193,0,0.581,0,0.679-0.291l0.581-0.679l0.775-0.291
			c0-0.194-0.097-0.485,0.194-0.485s2.036-0.775,2.036-1.26c0.582-0.291,1.163-0.485,1.648-0.873l1.163-0.291
			c0.388-0.388,1.842-1.551,2.327-1.551h0.097v0.097c0.775,0,1.357-0.775,2.036-0.97c0-0.388,0.097-0.484,0.484-0.484
			c0.098,0,0.389,0,0.389-0.291c0.484-0.485,1.26-1.26,1.938-1.357l0.485-0.485h0.775c0.291-0.291,0.484-0.679,0.97-0.582
			l0.581-0.194l0.582,0.097h0.194c0,0.097-0.194,0.097-0.194,0.097v0.291l0.388-0.291c0.097-0.194,0.485-0.194,0.679-0.194
			c0.388-0.485,1.939-1.551,2.715-1.551c0.291-0.291,0.775-0.679,1.261-0.679c0.097,0,0.388,0,0.388,0.194
			c0,0.291-0.776,0.679-0.97,0.873l-0.679,0.097l-0.194,0.679c-0.679,0-1.357,0.485-1.842,0.873
			c-0.097,0.388-0.388,0.775-0.679,0.969c-1.261,0-1.357,1.357-2.812,1.648l-1.261,1.163c-0.097,0.194-0.388,0.291-0.581,0.291
			h-0.194v0.97l-0.582,0.194l-0.872,1.164h-0.097c0,0.194,0,0.484-0.291,0.484h-0.388l-0.97,1.164
			c-0.388,0.097-0.97,0.388-0.97,0.873l-1.163,1.164c0,0.388-0.291,0.485-0.679,0.485h-0.291c-0.194,0.194-0.291,0.388-0.291,0.582
			c0,0.097,0.097,0.194,0.193,0.194c0.582-0.194,1.164-0.775,1.455-1.26c-0.098-0.291,0.097-0.485,0.388-0.485
			c0.097,0,3.006-1.066,3.878-1.26c0.194,0.291,1.842-0.485,2.23-0.679l0.484-0.485c0.484-0.097,0.97-0.388,1.357-0.679l0.97-0.194
			v0.873l-0.582,0.291c-0.097,0.097-0.194,0.194-0.291,0.194c-0.388,0-0.388-0.291-0.388,0.388c-0.194,0-0.582,0-0.775,0.194
			c0.097,0.776-0.679,0.679-1.261,0.776v0.582l-1.163,0.485c-0.098,0-0.485,0-0.485,0.194s0.582,0.485,0.582,0.97l0.291,0.775
			c-0.291-0.097-0.775,0-0.775,0.388c0,0.291-0.098,0.484-0.388,0.484h-0.098c-0.291,0.388-0.775,0.776-1.26,0.97
			c-0.098,0.388-0.582,0.582-0.97,0.582l-0.679,0.485l-0.388,0.582c0,0-0.291-0.097-0.291,0.097c0,0.097,0.291,0.291,0.388,0.388
			c1.066-0.291,2.036-1.648,3.199-2.133c0.388-0.097,0.873-0.194,1.261-0.194c0.193,0,0.291,0,0.291,0.194
			c0,0.582-2.424,2.424-2.812,2.618c-0.389-0.097-0.97,0-1.067,0.485l-0.388,0.582c-0.291,0-0.581,0.097-0.581,0.388v0.194
			c-0.388,0-0.485,0.291-0.873,0.291l-0.582,0.679l0.098,0.194l1.066-0.582l0.97,0.097c-0.098,0.679-0.873,0.775-0.873,1.357v0.097
			l-0.679,0.388l-0.582,0.776l-0.679,0.388v0.582l-0.29,0.485c0,0.97-0.873,0.388-1.066,1.261c-0.776,0-1.939,0.969-2.618,1.26
			c-0.097,0.582-0.582,0.969-1.066,1.164c0,0.484-0.775,0.679-1.164,0.775l-0.388,0.291c0,0.194,0,0.582,0.291,0.679
			c-0.291,0.194-0.775,0.194-1.163,0.194l-0.679,0.291v-0.097l-0.291,0.291c-0.097,0.291-0.484,0.388-0.775,0.388H98.009z
			 M32.274,95.694c0,0.679-1.357,2.327-1.648,2.715c0.97-0.097,0.485-0.775,1.164-0.873c0.485-0.29,1.066-0.872,1.26-1.454
			l-0.097-0.97C32.953,95.5,32.565,95.694,32.274,95.694z M33.535,98.118c0.194,0,0.194-0.194,0.194-0.291s-0.097-0.193-0.194-0.193
			c-0.097,0-0.097,0.097-0.194,0.097C33.341,97.827,33.438,98.118,33.535,98.118z M35.667,93.076l-0.291,0.389
			c-0.97,0.097-0.582,0.872-1.067,0.872c-0.194,0-0.582,0-0.582,0.291s0.388,0.775,0.679,0.775c0.097,0,0.097-0.097,0.097-0.193
			v-0.098c0.291-0.29,2.133-1.938,2.133-2.229c0-0.097-0.291-0.097-0.388-0.097l-0.582-0.389l0.485,0.389L35.667,93.076z
			 M37.122,92.495c0.097,0,0.097-0.098,0.097-0.194v-0.097l-0.388-0.097C36.831,92.301,36.928,92.495,37.122,92.495z M38.188,91.234
			l0.582,0.097c0.194,0,0.194-0.29,0.194-0.484c0.291,0,0.291-0.388,0.291-0.582l1.454-0.775l0.582-1.163
			c0.194,0,0.388-0.098,0.388-0.291c0-0.291-0.194-0.679-0.388-0.873c-0.097,0.194-1.648,2.133-1.648,2.327l-0.679,1.066
			C38.576,90.459,38.285,90.847,38.188,91.234z M39.449,91.816c0,0,0,0.193,0.097,0.193v-0.291l0.679-0.484
			c0-0.097,0-0.193-0.097-0.193c-0.097,0-0.097,0.193-0.097,0.29C39.74,91.331,39.449,91.429,39.449,91.816z M40.612,39.752
			c0,0.194-0.097,0.388-0.291,0.388s-0.485-0.194-0.485-0.388c0-0.097,0-0.388,0.194-0.388c0.194,0,0.388,0.194,0.582,0.291V39.752z
			 M41.97,43.436c0-0.194-0.194-0.582-0.485-0.582c-0.097,0-0.388,0-0.388,0.097c0,0.097,0.388,0.097,0.388,0.097L41.97,43.436z
			 M43.036,88.811c-0.485,0.097-0.873,0.679-1.164,1.066c-0.194,0-0.582,0-0.582,0.291c0,0.194,0.097,0.291,0.194,0.291
			c0.194,0,0.194-0.194,0.194-0.291C42.066,89.684,42.551,89.198,43.036,88.811z M41.679,44.987c0.194,0,0.194-0.194,0.194-0.291
			L41.485,44.6C41.485,44.696,41.582,44.987,41.679,44.987z M42.066,46.441h0.194c-0.097-0.194-0.194-0.291-0.388-0.291
			C41.873,46.248,41.873,46.441,42.066,46.441z M42.261,85.805c0.097,0,0.194-0.193,0.194-0.291l-0.485-0.097
			C41.97,85.611,42.066,85.805,42.261,85.805z M42.455,84.447c0.291,0.098,0.775,0.194,1.066,0.194c0.194,0,0.291-0.097,0.291-0.291
			c0-0.193-0.484-0.97-0.775-0.97C42.939,83.381,42.455,84.254,42.455,84.447z M42.939,48.575v-0.194l-0.388-0.776
			C42.551,47.702,42.842,48.575,42.939,48.575z M43.23,49.641h0.291l-0.582-0.582C42.939,49.253,42.939,49.641,43.23,49.641z
			 M43.133,88.811l0.291-0.193c0-0.098-0.097-0.194-0.194-0.194C43.133,88.423,43.133,88.714,43.133,88.811z M49.823,84.351
			l-0.969,0.291l-0.485,0.679l-0.485,0.193l-0.097,0.679c0,0.098,0,0.291-0.097,0.291c-0.194,0-0.485-0.291-0.582-0.388
			l-0.873,0.291c0,0.679-0.873,2.036-1.648,2.036c-0.097,0-0.388-0.097-0.388-0.194c0-0.679,1.648-1.26,1.648-1.842
			c0-0.388-0.775,0-0.775-0.484c0-0.485,0.582-1.261,0.873-1.648c0.582,0,0.194-0.388,0.679-0.388l1.26-1.066
			c0.485,0,0.97-0.582,1.357-0.582c0.194,0,0.194,0.194,0.194,0.291c0,0.193-0.097,0.484-0.194,0.679
			c0.582-0.098,0.582,0.388,1.066,0.388C50.308,83.963,49.823,83.963,49.823,84.351z M49.726,27.438
			c0-0.194-0.194-0.291-0.388-0.291C49.338,27.438,49.532,27.342,49.726,27.438z M49.823,80.86l0.873,0.291
			c0.388-0.679,0.873-1.454,1.551-1.939l-0.873-0.097C51.374,79.212,49.823,80.569,49.823,80.86z M52.441,81.055
			c0.097,0,0.097-0.194,0.097-0.291c0-0.098,0-0.194-0.097-0.194c-0.097,0-0.194,0.097-0.194,0.097
			C52.247,80.764,52.247,81.055,52.441,81.055z M64.657,82.121c0.097,0,0.097-0.098,0.097-0.194l-0.388-0.193
			C64.366,81.83,64.463,82.121,64.657,82.121z M65.433,85.514c0,0.098,0.097,0.291,0.193,0.291c0.194,0,0.291-0.193,0.291-0.291
			l-0.484-0.097V85.514z M66.014,86.969c0.194,0,0.194-0.194,0.194-0.291l-0.388-0.097C65.82,86.678,65.917,86.969,66.014,86.969z
			 M65.82,89.586c0,0.291,0.193,0.291,0.388,0.291c0-0.291-0.194-0.484-0.388-0.679V89.586z M66.402,88.035
			c0.097,0,0.193-0.097,0.193-0.194c0-0.097-0.097-0.193-0.193-0.193c0,0-0.098,0.097-0.194,0.097
			C66.208,87.841,66.305,88.035,66.402,88.035z M66.596,89.198l0.194-0.581c-0.097-0.098-0.097-0.098-0.194-0.098h-0.097
			C66.499,88.714,66.499,89.005,66.596,89.198z M67.565,66.221v-0.776h-0.872C66.693,66.221,66.887,66.123,67.565,66.221z
			 M67.081,62.73c0,0.291,0.291,0.291,0.484,0.291l0.775-0.097c0.194-0.194,0.776-0.582,0.776-0.873
			c0-0.097-0.194-0.097-0.194-0.097c-0.291-0.194-0.679-0.291-0.97-0.291C67.469,61.664,67.081,62.245,67.081,62.73z M68.051,69.517
			c0.097,0,0.193-0.193,0.193-0.291c0-0.097,0-0.097-0.097-0.097s-0.194,0-0.291,0.097C67.856,69.323,67.856,69.517,68.051,69.517z
			 M68.535,70.971c0.194,0,0.194-0.193,0.194-0.291l-0.389-0.097C68.341,70.68,68.438,70.971,68.535,70.971z M68.826,64.087
			c0-0.097,0.291-0.194,0.484-0.194c0-0.097-0.097-0.388-0.291-0.388C68.923,63.505,68.826,63.894,68.826,64.087z M69.893,73.88
			l-0.582-0.679C69.408,73.686,69.311,73.88,69.893,73.88z M70.765,59.918c0,0.291,0.194,0.291,0.389,0.291l0.775-1.164
			c0.193,0,0.484-0.097,0.484-0.291c0-0.291-0.193-0.582-0.291-0.776C72.025,58.076,70.765,59.724,70.765,59.918z M72.995,57.591
			c0,0.291,0.097,0.776,0.193,1.066h0.97c0,0.194,0,0.485-0.291,0.485h-0.097c-0.484,0.388-0.97,1.066-1.261,1.648l0.582-0.194
			c0.388,0.097,0.775-0.291,0.775-0.679c0.679-0.097,0.679-0.194,0.679-0.873l0.873-0.582c-0.388,0.097-0.873,0-0.97-0.485
			c0.679,0,1.357-0.194,2.036-0.388c0-0.485-0.872-1.842,0.097-1.842c0.098,0,0.388,0,0.388-0.194c0-0.291-0.388-0.873-0.679-0.873
			c-0.193,0-0.193,0.194-0.193,0.291c-0.388,0.291-1.261,1.066-1.261,1.551c0,0.291,0.485,0.291,0.485,0.582
			c0,0.097-0.679,0.097-0.776,0.097c0-0.582-0.775-0.388-0.775,0.097C73.479,57.204,72.995,57.204,72.995,57.591z M73.479,81.055
			c0.194,0,0.194-0.098,0.194-0.194c0-0.194-0.194-0.194-0.291-0.194h-0.194C73.188,80.86,73.286,81.055,73.479,81.055z
			 M74.158,82.509c0.098,0,0.194-0.097,0.291-0.097c0-0.098-0.097-0.194-0.291-0.194h-0.097
			C74.062,82.314,74.062,82.412,74.158,82.509z M74.546,102.966h0.098l-0.291-0.193C74.353,102.869,74.449,102.966,74.546,102.966z
			 M74.449,105.486c0,0.291,0.194,0.291,0.388,0.291c0-0.291-0.193-0.484-0.388-0.679V105.486z M74.837,103.741
			c0,0.098,0.098,0.194,0.194,0.194s0.193,0,0.193-0.097l-0.388-0.194V103.741z M75.807,105.293l-0.679-0.873
			C75.225,105.002,75.128,105.293,75.807,105.293z M77.939,54.683c0.194,0,0.194-0.194,0.194-0.291l-0.388-0.097
			C77.746,54.392,77.843,54.683,77.939,54.683z M78.327,116.346c-0.097-0.291-0.193-0.484-0.388-0.679
			C77.939,115.958,77.939,116.346,78.327,116.346z M80.363,54.974h-0.097c-0.097,0-0.291,0-0.291-0.097
			c0-0.388,0.582-0.582,0.873-0.582c0-0.582,0.484-0.388,0.872-0.388c0-0.194,0.194-0.291,0.388-0.291h0.194
			C82.303,54.78,81.042,54.489,80.363,54.974z M81.43,97.343c0.098,0,0.098-0.097,0.098-0.194l-0.388-0.097
			C81.14,97.148,81.236,97.343,81.43,97.343z M82.012,98.603c0.097,0,0.194-0.097,0.291-0.097c0-0.097-0.097-0.193-0.291-0.193
			h-0.097C81.915,98.409,81.915,98.506,82.012,98.603z M85.502,50.61v-0.775l-0.679,0.097C84.823,50.61,84.823,50.61,85.502,50.61z
			 M85.89,48.478c0.098,0.097,0.194,0.485,0.388,0.485c0.098,0,0.194-0.097,0.194-0.194c0.291,0.097,0.679,0,0.679-0.388v-0.097
			l-0.775-0.291L85.89,48.478z M88.604,45.86c0.097,0,0.097-0.097,0.097-0.194v-0.097l-0.388-0.097
			C88.313,45.569,88.411,45.86,88.604,45.86z M101.015,33.837l0.097,0.388h0.194l0.097-0.194c0.291,0.097,0.582,0,0.582-0.291
			v-0.097l-0.582-0.194L101.015,33.837z M102.954,22.688c0.097,0,0.097-0.097,0.097-0.097l-0.388-0.097
			C102.76,22.591,102.857,22.688,102.954,22.688z M103.245,31.705v-0.194l-0.291-0.097
			C102.954,31.511,103.051,31.705,103.245,31.705z M103.924,22.3v-0.194l0.29-0.388l-0.679-0.097
			C103.535,21.718,103.729,22.3,103.924,22.3z M104.99,21.331c0.193,0,0.193-0.194,0.193-0.291h-0.291L104.99,21.331z"/>
	</g>
</g>
</svg>
